<svg width="40" height="40" viewBox="0 0 40 40" fill="none" xmlns="http://www.w3.org/2000/svg">
<path d="M17.125 2.23723C18.9041 1.21009 21.0959 1.21009 22.875 2.23723L33.9455 8.62879C35.7246 9.65593 36.8205 11.5542 36.8205 13.6084V26.3916C36.8205 28.4458 35.7246 30.3441 33.9455 31.3712L22.875 37.7628C21.0959 38.7899 18.9041 38.7899 17.125 37.7628L6.05449 31.3712C4.27543 30.3441 3.17949 28.4458 3.17949 26.3916V13.6084C3.17949 11.5542 4.27544 9.65593 6.05449 8.62879L17.125 2.23723Z" fill="#3137AA" stroke="#FCFCFD"/>
<path d="M23.5237 11.5977H18.3397C18.1728 11.5977 18.0376 11.7308 18.0376 11.8951C18.0376 12.0593 18.1728 12.1924 18.3397 12.1924H23.5236C23.6905 12.1924 23.8258 12.0593 23.8258 11.8951C23.8258 11.7308 23.6905 11.5977 23.5237 11.5977Z" fill="#FCFCFD"/>
<path d="M20.6482 12.8649H18.3397C18.1728 12.8649 18.0375 12.998 18.0375 13.1622C18.0375 13.3265 18.1728 13.4596 18.3397 13.4596H20.6482C20.8151 13.4596 20.9503 13.3265 20.9503 13.1622C20.9503 12.998 20.8151 12.8649 20.6482 12.8649Z" fill="#FCFCFD"/>
<path d="M29.0153 12.9168C28.8484 12.9168 28.7132 13.0498 28.7132 13.2141C28.7132 13.3783 28.8484 13.5114 29.0153 13.5114C29.3126 13.5114 29.5544 13.7494 29.5544 14.042V22.4905H27.3493V13.5114H27.8528C28.0197 13.5114 28.155 13.3783 28.155 13.2141C28.155 13.0498 28.0197 12.9167 27.8528 12.9167H27.3493V10.8934C27.3493 10.4008 26.9421 10 26.4415 10H13.7952C13.2947 10 12.8874 10.4008 12.8874 10.8934V12.9168H11.302C10.6715 12.9168 10.1586 13.4215 10.1586 14.042V25.5278C10.1586 26.1482 10.6715 26.653 11.302 26.653H13.1627C13.3295 26.653 13.4648 26.5199 13.4648 26.3557C13.4648 26.1914 13.3296 26.0583 13.1627 26.0583H11.302C11.0047 26.0583 10.7629 25.8204 10.7629 25.5278V23.0852H29.5543V25.5278C29.5543 25.8204 29.3125 26.0583 29.0153 26.0583H14.5861C14.4192 26.0583 14.2839 26.1914 14.2839 26.3557C14.2839 26.5199 14.4191 26.653 14.5861 26.653H17.6823V28.2286C16.8685 28.2429 16.2108 28.8984 16.2108 29.7027C16.2108 29.8669 16.346 30 16.5129 30H23.8043C23.9712 30 24.1065 29.8669 24.1065 29.7027C24.1065 28.8984 23.4488 28.2429 22.635 28.2286V26.653H29.0153C29.6457 26.653 30.1586 26.1482 30.1586 25.5278V14.042C30.1586 13.4215 29.6457 12.9168 29.0153 12.9168ZM12.8874 22.4905H10.7629V14.042C10.7629 13.7494 11.0047 13.5114 11.302 13.5114H12.8874V22.4905ZM26.745 14.344H16.4525C16.2857 14.344 16.1504 14.4771 16.1504 14.6414C16.1504 14.8056 16.2856 14.9387 16.4525 14.9387H26.745V22.4905H13.4917V14.9387H14.8814C15.0483 14.9387 15.1836 14.8056 15.1836 14.6414C15.1836 14.4771 15.0483 14.344 14.8814 14.344H13.4917V10.8934C13.4917 10.7287 13.6278 10.5947 13.7952 10.5947H26.4415C26.6089 10.5947 26.745 10.7287 26.745 10.8934V14.344ZM18.2865 26.653H22.0307V28.2279H18.2865V26.653ZM23.4497 29.4053H16.8676C16.9918 29.0659 17.3222 28.8226 17.7093 28.8226H22.608C22.9951 28.8226 23.3255 29.0659 23.4497 29.4053Z" fill="#FCFCFD"/>
<path d="M20.3207 23.6731C19.8172 23.6731 19.4076 24.0762 19.4076 24.5718C19.4076 25.0672 19.8172 25.4704 20.3207 25.4704C20.8242 25.4704 21.2338 25.0673 21.2338 24.5718C21.2338 24.0762 20.8241 23.6731 20.3207 23.6731ZM20.3207 24.8757C20.1504 24.8757 20.0118 24.7393 20.0118 24.5718C20.0118 24.4041 20.1504 24.2678 20.3207 24.2678C20.491 24.2678 20.6295 24.4042 20.6295 24.5718C20.6295 24.7393 20.4909 24.8757 20.3207 24.8757Z" fill="#FCFCFD"/>
<path d="M16.7993 13.0754L15.8048 11.3803C15.7509 11.2883 15.6512 11.2316 15.5432 11.2316C15.4352 11.2316 15.3355 11.2883 15.2815 11.3803L14.2871 13.0754C14.2331 13.1674 14.2331 13.2808 14.2871 13.3728C14.3411 13.4648 14.4408 13.5214 14.5487 13.5214H16.5377C16.6456 13.5214 16.7453 13.4648 16.7993 13.3728C16.8533 13.2808 16.8533 13.1674 16.7993 13.0754ZM15.072 12.9268L15.5432 12.1237L16.0144 12.9268H15.072Z" fill="#FCFCFD"/>
<path d="M25.8547 16.0351H21.4791C21.3122 16.0351 21.1769 16.1682 21.1769 16.3324C21.1769 16.4966 21.3122 16.6298 21.4791 16.6298H25.8547C26.0216 16.6298 26.1568 16.4967 26.1568 16.3324C26.1568 16.1682 26.0216 16.0351 25.8547 16.0351Z" fill="#FCFCFD"/>
<path d="M25.8547 17.3428H21.4791C21.3122 17.3428 21.1769 17.4759 21.1769 17.6401C21.1769 17.8044 21.3122 17.9375 21.4791 17.9375H25.8547C26.0216 17.9375 26.1568 17.8044 26.1568 17.6401C26.1568 17.4759 26.0216 17.3428 25.8547 17.3428Z" fill="#FCFCFD"/>
<path d="M25.8547 18.6505H21.4791C21.3122 18.6505 21.1769 18.7836 21.1769 18.9478C21.1769 19.112 21.3122 19.2452 21.4791 19.2452H25.8547C26.0216 19.2452 26.1568 19.1121 26.1568 18.9478C26.1568 18.7836 26.0216 18.6505 25.8547 18.6505Z" fill="#FCFCFD"/>
<path d="M25.8547 19.9582H21.4791C21.3122 19.9582 21.1769 20.0912 21.1769 20.2555C21.1769 20.4197 21.3122 20.5529 21.4791 20.5529H25.8547C26.0216 20.5529 26.1568 20.4198 26.1568 20.2555C26.1568 20.0912 26.0216 19.9582 25.8547 19.9582Z" fill="#FCFCFD"/>
<path d="M23.5236 21.2659H21.4791C21.3122 21.2659 21.1769 21.3989 21.1769 21.5632C21.1769 21.7274 21.3122 21.8605 21.4791 21.8605H23.5236C23.6905 21.8605 23.8257 21.7275 23.8257 21.5632C23.8257 21.3989 23.6905 21.2659 23.5236 21.2659Z" fill="#FCFCFD"/>
<path d="M20.1183 15.7846H14.5487C14.3818 15.7846 14.2466 15.9177 14.2466 16.0819V21.5632C14.2466 21.7274 14.3818 21.8605 14.5487 21.8605H20.1183C20.2852 21.8605 20.4205 21.7275 20.4205 21.5632V16.0819C20.4205 15.9177 20.2852 15.7846 20.1183 15.7846ZM14.8509 16.3793H19.8162V19.4882C19.7824 19.4825 19.7486 19.4775 19.7148 19.4738C19.1882 19.4157 18.8854 19.6231 18.642 19.7897C18.4593 19.9147 18.3016 20.0227 18.0373 20.0437C17.6098 20.0783 17.3357 19.8546 16.9885 19.572C16.6021 19.2574 16.1637 18.9012 15.4669 18.9425C15.258 18.955 15.0521 19.0023 14.8509 19.0833V16.3793ZM19.8162 21.2659H14.8508V19.7476C15.0652 19.6202 15.2841 19.5492 15.5036 19.5361C15.9625 19.5086 16.2596 19.7503 16.6034 20.0302C16.9834 20.3395 17.4138 20.6898 18.0861 20.6365C18.5128 20.6024 18.7757 20.4225 18.987 20.278C19.2037 20.1297 19.3471 20.0318 19.6476 20.0648C19.7035 20.071 19.7598 20.0813 19.8162 20.0957V21.2659Z" fill="#FCFCFD"/>
<path d="M18.1306 17.0434C17.6209 17.0434 17.2062 17.4515 17.2062 17.9532C17.2062 18.4548 17.6209 18.8629 18.1306 18.8629C18.6404 18.8629 19.055 18.4548 19.055 17.9532C19.055 17.4515 18.6404 17.0434 18.1306 17.0434ZM18.1306 18.2682C17.9541 18.2682 17.8105 18.1269 17.8105 17.9532C17.8105 17.7794 17.9541 17.6381 18.1306 17.6381C18.3071 17.6381 18.4508 17.7795 18.4508 17.9532C18.4508 18.1269 18.3071 18.2682 18.1306 18.2682Z" fill="#FCFCFD"/>
</svg>
