<svg width="40" height="40" viewBox="0 0 40 40" fill="none" xmlns="http://www.w3.org/2000/svg">
<path d="M17.125 2.23723C18.9041 1.21009 21.0959 1.21009 22.875 2.23723L33.9455 8.62879C35.7246 9.65593 36.8205 11.5542 36.8205 13.6084V26.3916C36.8205 28.4458 35.7246 30.3441 33.9455 31.3712L22.875 37.7628C21.0959 38.7899 18.9041 38.7899 17.125 37.7628L6.05449 31.3712C4.27543 30.3441 3.17949 28.4458 3.17949 26.3916V13.6084C3.17949 11.5542 4.27544 9.65593 6.05449 8.62879L17.125 2.23723Z" fill="#3137AA" stroke="#FCFCFD"/>
<path d="M29.3288 14.0992L27.9269 14.0991V12.6479C27.9269 12.3156 27.6838 12.0333 27.3552 11.9842C27.2978 11.9755 25.932 11.7771 24.2874 12.0764C22.4539 12.41 20.9917 13.2327 20 14.4764C19.0082 13.2327 17.546 12.41 15.7126 12.0764C14.0679 11.7772 12.7021 11.9755 12.6448 11.9842C12.3162 12.0334 12.0731 12.3157 12.0731 12.6479V14.0991H10.6711C10.3005 14.0991 10 14.3996 10 14.7703V27.417C10 27.6343 10.1052 27.8382 10.2824 27.9641C10.4595 28.09 10.6867 28.1223 10.8918 28.0508C10.9422 28.0334 15.9714 26.317 19.7214 28.0276C19.8984 28.1083 20.1016 28.1083 20.2786 28.0276C24.0181 26.3219 29.058 28.0335 29.1081 28.0508C29.1801 28.0759 29.2545 28.0882 29.3288 28.0882C29.4663 28.0882 29.6025 28.0459 29.7176 27.9642C29.8948 27.8382 30 27.6344 30 27.4171V14.7703C29.9999 14.3997 29.6995 14.0992 29.3288 14.0992ZM11.3423 26.5191V15.4414H12.0731V24.3791C12.0731 24.5741 12.1584 24.7593 12.3059 24.8868C12.4535 25.0143 12.6497 25.0714 12.8425 25.043C12.8796 25.0376 15.7951 24.6373 17.9252 26.0988C15.3013 25.6501 12.6752 26.1691 11.3423 26.5191ZM19.3289 25.4935C18.3907 24.6459 17.1687 24.0727 15.7126 23.8077C15.0118 23.6802 14.3617 23.643 13.8419 23.643C13.6875 23.643 13.5446 23.6463 13.4154 23.6515V13.2641H13.4153C14.7052 13.206 17.8431 13.3439 19.3289 15.8626V25.4935ZM20.6711 15.8627C22.1515 13.3547 25.2943 13.2105 26.5846 13.2658V23.6515C26.0201 23.6288 25.196 23.6424 24.2874 23.8077C22.8313 24.0727 21.6093 24.6458 20.6711 25.4935V15.8627ZM22.0725 26.0992C24.2028 24.6368 27.1199 25.0375 27.1563 25.0429C27.3496 25.0719 27.5457 25.0151 27.6937 24.8877C27.8418 24.7601 27.9269 24.5745 27.9269 24.3791V15.4414H28.6576V26.5191C27.3243 26.169 24.6971 25.6498 22.0725 26.0992Z" fill="#FCFCFD"/>
</svg>
