<svg width="24" height="24" viewBox="0 0 24 24" fill="none" xmlns="http://www.w3.org/2000/svg">
<mask id="path-1-inside-1_59_1229" fill="white">
<path d="M21 10.75H15C14.536 10.7494 14.0912 10.5649 13.7632 10.2368C13.4351 9.90875 13.2506 9.46396 13.25 9V3C13.2506 2.53604 13.4351 2.09125 13.7632 1.76319C14.0912 1.43512 14.536 1.25056 15 1.25H21C21.4639 1.25056 21.9087 1.43512 22.2368 1.76319C22.5649 2.09125 22.7494 2.53604 22.75 3V9C22.7494 9.46396 22.5649 9.90875 22.2368 10.2368C21.9087 10.5649 21.4639 10.7494 21 10.75ZM15 2.75C14.9337 2.75013 14.8702 2.77651 14.8234 2.82336C14.7765 2.87022 14.7501 2.93373 14.75 3V9C14.7501 9.06627 14.7765 9.12978 14.8234 9.17664C14.8702 9.22349 14.9337 9.24987 15 9.25H21C21.0663 9.24987 21.1298 9.22349 21.1766 9.17664C21.2235 9.12978 21.2499 9.06627 21.25 9V3C21.2499 2.93373 21.2235 2.87022 21.1766 2.82336C21.1298 2.77651 21.0663 2.75013 21 2.75H15Z"/>
<path d="M18 23.2451C17.7702 23.2456 17.5426 23.2006 17.3302 23.1128C17.1179 23.025 16.925 22.896 16.7627 22.7334L13.2666 19.2373C12.939 18.9088 12.755 18.4639 12.755 18C12.755 17.5361 12.939 17.0911 13.2666 16.7627L16.7627 13.2666C17.091 12.9387 17.536 12.7546 18 12.7546C18.464 12.7546 18.909 12.9387 19.2373 13.2666L22.7334 16.7627C23.0612 17.091 23.2454 17.536 23.2454 18C23.2454 18.4639 23.0612 18.9089 22.7334 19.2373L19.2373 22.7334C19.075 22.896 18.8821 23.025 18.6697 23.1128C18.4574 23.2006 18.2298 23.2456 18 23.2451ZM18 14.2539C17.9671 14.2538 17.9346 14.2602 17.9043 14.2728C17.8739 14.2854 17.8464 14.3038 17.8232 14.3271L14.3271 17.8232C14.3039 17.8464 14.2855 17.874 14.2729 17.9043C14.2604 17.9346 14.2539 17.9671 14.2539 18C14.2539 18.0328 14.2604 18.0653 14.2729 18.0956C14.2855 18.126 14.3039 18.1535 14.3271 18.1767L17.8232 21.6728C17.8464 21.696 17.874 21.7145 17.9043 21.727C17.9347 21.7396 17.9672 21.7461 18 21.7461C18.0328 21.7461 18.0653 21.7396 18.0957 21.727C18.126 21.7145 18.1535 21.696 18.1768 21.6728L21.6728 18.1767C21.6961 18.1535 21.7145 18.126 21.727 18.0956C21.7396 18.0653 21.7461 18.0328 21.7461 18C21.7461 17.9671 21.7396 17.9346 21.727 17.9043C21.7145 17.874 21.6961 17.8464 21.6728 17.8232L18.1768 14.3271C18.1536 14.3038 18.126 14.2854 18.0957 14.2728C18.0654 14.2602 18.0328 14.2538 18 14.2539Z"/>
<path d="M8.99999 10.75H2.99999C2.53604 10.7495 2.09124 10.5649 1.76318 10.2368C1.43511 9.90878 1.25056 9.46399 1.24999 9.00003V3.00003C1.25056 2.53607 1.43511 2.09128 1.76318 1.76322C2.09124 1.43515 2.53604 1.25059 2.99999 1.25003H8.99999C9.46395 1.25059 9.90874 1.43515 10.2368 1.76322C10.5649 2.09128 10.7494 2.53607 10.75 3.00003V9.00003C10.7494 9.46399 10.5649 9.90878 10.2368 10.2368C9.90874 10.5649 9.46395 10.7495 8.99999 10.75ZM2.99999 2.75003C2.93373 2.75016 2.87021 2.77654 2.82336 2.82339C2.7765 2.87025 2.75012 2.93377 2.74999 3.00003V9.00003C2.75012 9.0663 2.7765 9.12981 2.82336 9.17667C2.87021 9.22352 2.93373 9.2499 2.99999 9.25003H8.99999C9.06626 9.2499 9.12977 9.22352 9.17663 9.17667C9.22349 9.12981 9.24987 9.0663 9.24999 9.00003V3.00003C9.24987 2.93377 9.22349 2.87025 9.17663 2.82339C9.12977 2.77654 9.06626 2.75016 8.99999 2.75003H2.99999Z"/>
<path d="M8.99999 22.75H2.99999C2.53604 22.7494 2.09124 22.5649 1.76318 22.2368C1.43511 21.9087 1.25056 21.464 1.24999 21V15C1.25056 14.536 1.43511 14.0913 1.76318 13.7632C2.09124 13.4351 2.53604 13.2506 2.99999 13.25H8.99999C9.46395 13.2506 9.90874 13.4351 10.2368 13.7632C10.5649 14.0913 10.7494 14.536 10.75 15V21C10.7494 21.464 10.5649 21.9087 10.2368 22.2368C9.90874 22.5649 9.46395 22.7494 8.99999 22.75ZM2.99999 14.75C2.93373 14.7501 2.87021 14.7765 2.82336 14.8234C2.7765 14.8702 2.75012 14.9337 2.74999 15V21C2.75012 21.0663 2.7765 21.1298 2.82336 21.1766C2.87021 21.2235 2.93373 21.2499 2.99999 21.25H8.99999C9.06626 21.2499 9.12977 21.2235 9.17663 21.1766C9.22349 21.1298 9.24987 21.0663 9.24999 21V15C9.24987 14.9337 9.22349 14.8702 9.17663 14.8234C9.12977 14.7765 9.06626 14.7501 8.99999 14.75H2.99999Z"/>
</mask>
<path d="M21 10.75V11.75L21.0012 11.75L21 10.75ZM15 10.75L14.9988 11.75H15V10.75ZM13.25 9H12.25L12.25 9.00121L13.25 9ZM13.25 3L12.25 2.99879V3H13.25ZM15 1.25V0.249999L14.9988 0.250001L15 1.25ZM21 1.25L21.0012 0.25H21V1.25ZM22.75 3H23.75V2.99879L22.75 3ZM22.75 9L23.75 9.00121V9H22.75ZM15 2.75V1.75L14.9981 1.75L15 2.75ZM14.75 3L13.75 2.99809V3H14.75ZM14.75 9H13.75L13.75 9.00191L14.75 9ZM15 9.25L14.9981 10.25H15V9.25ZM21 9.25V10.25L21.0019 10.25L21 9.25ZM21.25 9L22.25 9.00191V9H21.25ZM21.25 3H22.25L22.25 2.99809L21.25 3ZM21 2.75L21.0019 1.75H21V2.75ZM18 23.2451L18.0021 22.2451L17.9979 22.2451L18 23.2451ZM16.7627 22.7334L17.4705 22.027L17.4698 22.0263L16.7627 22.7334ZM13.2666 19.2373L12.5586 19.9435L12.5595 19.9444L13.2666 19.2373ZM12.755 18H13.755H12.755ZM13.2666 16.7627L12.5595 16.0556L12.5586 16.0564L13.2666 16.7627ZM16.7627 13.2666L16.0561 12.5589L16.0556 12.5595L16.7627 13.2666ZM18 12.7546V11.7546V12.7546ZM19.2373 13.2666L19.9444 12.5595L19.9439 12.5589L19.2373 13.2666ZM22.7334 16.7627L23.441 16.0561L23.4405 16.0556L22.7334 16.7627ZM22.7334 19.2373L23.4405 19.9444L23.441 19.9438L22.7334 19.2373ZM19.2373 22.7334L18.5302 22.0263L18.5295 22.027L19.2373 22.7334ZM18 14.2539L17.9974 15.2539L18.0026 15.2539L18 14.2539ZM17.8232 14.3271L18.5303 15.0342L18.5323 15.0322L17.8232 14.3271ZM14.3271 17.8232L15.0341 18.5305L15.0342 18.5303L14.3271 17.8232ZM14.3271 18.1767L15.0342 17.4696L15.0341 17.4694L14.3271 18.1767ZM17.8232 21.6728L18.5305 20.9659L18.5303 20.9657L17.8232 21.6728ZM18.1768 21.6728L17.4696 20.9657L17.4695 20.9659L18.1768 21.6728ZM21.6728 18.1767L20.9659 17.4694L20.9657 17.4696L21.6728 18.1767ZM21.6728 17.8232L20.9657 18.5303L20.9659 18.5305L21.6728 17.8232ZM18.1768 14.3271L17.4677 15.0322L17.4696 15.0342L18.1768 14.3271ZM8.99999 10.75V11.75L9.00121 11.75L8.99999 10.75ZM2.99999 10.75L2.99878 11.75H2.99999V10.75ZM1.24999 9.00003H0.249992L0.249993 9.00125L1.24999 9.00003ZM1.24999 3.00003L0.249992 2.99882V3.00003H1.24999ZM2.99999 1.25003V0.25003L2.99878 0.250031L2.99999 1.25003ZM8.99999 1.25003L9.00121 0.250031H8.99999V1.25003ZM10.75 3.00003H11.75L11.75 2.99882L10.75 3.00003ZM10.75 9.00003L11.75 9.00125V9.00003H10.75ZM2.99999 2.75003V1.75003L2.99808 1.75003L2.99999 2.75003ZM2.74999 3.00003L1.74999 2.99812V3.00003H2.74999ZM2.74999 9.00003H1.74999L1.74999 9.00195L2.74999 9.00003ZM2.99999 9.25003L2.99808 10.25H2.99999V9.25003ZM8.99999 9.25003V10.25L9.00191 10.25L8.99999 9.25003ZM9.24999 9.00003L10.25 9.00195V9.00003H9.24999ZM9.24999 3.00003H10.25L10.25 2.99812L9.24999 3.00003ZM8.99999 2.75003L9.00191 1.75003H8.99999V2.75003ZM8.99999 22.75V23.75H9.00121L8.99999 22.75ZM2.99999 22.75L2.99878 23.75H2.99999V22.75ZM1.24999 21H0.249992L0.249993 21.0012L1.24999 21ZM1.24999 15L0.249992 14.9988V15H1.24999ZM2.99999 13.25V12.25L2.99878 12.25L2.99999 13.25ZM8.99999 13.25L9.00121 12.25H8.99999V13.25ZM10.75 15H11.75L11.75 14.9988L10.75 15ZM10.75 21L11.75 21.0012V21H10.75ZM2.99999 14.75V13.75L2.99808 13.75L2.99999 14.75ZM2.74999 15L1.74999 14.9981V15H2.74999ZM2.74999 21H1.74999L1.74999 21.0019L2.74999 21ZM2.99999 21.25L2.99808 22.25H2.99999V21.25ZM8.99999 21.25V22.25L9.00191 22.25L8.99999 21.25ZM9.24999 21L10.25 21.0019V21H9.24999ZM9.24999 15H10.25L10.25 14.9981L9.24999 15ZM8.99999 14.75L9.00191 13.75H8.99999V14.75ZM21 9.75H15V11.75H21V9.75ZM15.0012 9.75C14.802 9.74976 14.6111 9.67054 14.4703 9.52971L13.0561 10.9439C13.5714 11.4592 14.27 11.7491 14.9988 11.75L15.0012 9.75ZM14.4703 9.52971C14.3295 9.38888 14.2502 9.19795 14.25 8.99879L12.25 9.00121C12.2509 9.72997 12.5408 10.4286 13.0561 10.9439L14.4703 9.52971ZM14.25 9V3H12.25V9H14.25ZM14.25 3.00121C14.2502 2.80205 14.3295 2.61112 14.4703 2.47029L13.0561 1.05608C12.5408 1.57138 12.2509 2.27003 12.25 2.99879L14.25 3.00121ZM14.4703 2.47029C14.6111 2.32946 14.802 2.25024 15.0012 2.25L14.9988 0.250001C14.27 0.250886 13.5714 0.540774 13.0561 1.05608L14.4703 2.47029ZM15 2.25H21V0.25H15V2.25ZM20.9988 2.25C21.1979 2.25024 21.3889 2.32946 21.5297 2.47029L22.9439 1.05608C22.4286 0.540774 21.73 0.250886 21.0012 0.250001L20.9988 2.25ZM21.5297 2.47029C21.6705 2.61112 21.7498 2.80205 21.75 3.00121L23.75 2.99879C23.7491 2.27003 23.4592 1.57138 22.9439 1.05608L21.5297 2.47029ZM21.75 3V9H23.75V3H21.75ZM21.75 8.99879C21.7498 9.19795 21.6705 9.38888 21.5297 9.52971L22.9439 10.9439C23.4592 10.4286 23.7491 9.72997 23.75 9.00121L21.75 8.99879ZM21.5297 9.52971C21.3889 9.67054 21.1979 9.74976 20.9988 9.75L21.0012 11.75C21.73 11.7491 22.4286 11.4592 22.9439 10.9439L21.5297 9.52971ZM14.9981 1.75C14.6673 1.75064 14.3502 1.88233 14.1162 2.11626L15.5305 3.53047C15.3903 3.67068 15.2002 3.74962 15.0019 3.75L14.9981 1.75ZM14.1162 2.11626C13.8823 2.35018 13.7506 2.66727 13.75 2.99809L15.75 3.00191C15.7496 3.2002 15.6707 3.39026 15.5305 3.53047L14.1162 2.11626ZM13.75 3V9H15.75V3H13.75ZM13.75 9.00191C13.7506 9.33273 13.8823 9.64982 14.1162 9.88374L15.5305 8.46953C15.6707 8.60974 15.7496 8.7998 15.75 8.99809L13.75 9.00191ZM14.1162 9.88374C14.3502 10.1177 14.6673 10.2494 14.9981 10.25L15.0019 8.25C15.2002 8.25038 15.3903 8.32932 15.5305 8.46953L14.1162 9.88374ZM15 10.25H21V8.25H15V10.25ZM21.0019 10.25C21.3327 10.2494 21.6498 10.1177 21.8837 9.88374L20.4695 8.46953C20.6097 8.32932 20.7998 8.25038 20.9981 8.25L21.0019 10.25ZM21.8837 9.88374C22.1177 9.64983 22.2494 9.33274 22.25 9.00191L20.25 8.99809C20.2504 8.79979 20.3293 8.60974 20.4695 8.46953L21.8837 9.88374ZM22.25 9V3H20.25V9H22.25ZM22.25 2.99809C22.2494 2.66726 22.1177 2.35017 21.8837 2.11626L20.4695 3.53047C20.3293 3.39027 20.2504 3.20021 20.25 3.00191L22.25 2.99809ZM21.8837 2.11626C21.6498 1.88234 21.3327 1.75064 21.0019 1.75L20.9981 3.75C20.7998 3.74962 20.6097 3.67068 20.4695 3.53047L21.8837 2.11626ZM21 1.75H15V3.75H21V1.75ZM17.9979 22.2451C17.8999 22.2453 17.8029 22.2261 17.7124 22.1887L16.9481 24.0369C17.2822 24.1751 17.6405 24.2458 18.0021 24.2451L17.9979 22.2451ZM17.7124 22.1887C17.6219 22.1513 17.5397 22.0963 17.4705 22.027L16.0549 23.4398C16.3103 23.6957 16.6139 23.8987 16.9481 24.0369L17.7124 22.1887ZM17.4698 22.0263L13.9737 18.5302L12.5595 19.9444L16.0556 23.4405L17.4698 22.0263ZM13.9746 18.5311C13.834 18.3901 13.755 18.1991 13.755 18H11.755C11.755 18.7287 12.044 19.4276 12.5586 19.9435L13.9746 18.5311ZM13.755 18C13.755 17.8009 13.834 17.6099 13.9746 17.4689L12.5586 16.0564C12.044 16.5724 11.755 17.2713 11.755 18H13.755ZM13.9737 17.4698L17.4698 13.9737L16.0556 12.5595L12.5595 16.0556L13.9737 17.4698ZM17.4693 13.9742C17.6101 13.8336 17.801 13.7546 18 13.7546V11.7546C17.2711 11.7546 16.5719 12.0439 16.0561 12.5589L17.4693 13.9742ZM18 13.7546C18.199 13.7546 18.3899 13.8336 18.5307 13.9742L19.9439 12.5589C19.428 12.0439 18.7289 11.7546 18 11.7546V13.7546ZM18.5302 13.9737L22.0263 17.4698L23.4405 16.0556L19.9444 12.5595L18.5302 13.9737ZM22.0258 17.4692C22.1664 17.6101 22.2454 17.801 22.2454 18H24.2454C24.2454 17.271 23.9561 16.5719 23.441 16.0561L22.0258 17.4692ZM22.2454 18C22.2454 18.199 22.1664 18.3899 22.0258 18.5307L23.441 19.9438C23.9561 19.428 24.2454 18.7289 24.2454 18H22.2454ZM22.0263 18.5302L18.5302 22.0263L19.9444 23.4405L23.4405 19.9444L22.0263 18.5302ZM18.5295 22.027C18.4603 22.0963 18.3781 22.1513 18.2876 22.1887L19.0519 24.0369C19.3861 23.8987 19.6897 23.6957 19.9451 23.4398L18.5295 22.027ZM18.2876 22.1887C18.1971 22.2261 18.1 22.2453 18.0021 22.2451L17.9979 24.2451C18.3595 24.2458 18.7177 24.1751 19.0519 24.0369L18.2876 22.1887ZM18.0026 13.2539C17.8375 13.2535 17.674 13.2858 17.5215 13.349L18.2871 15.1966C18.1952 15.2347 18.0968 15.2541 17.9974 15.2539L18.0026 13.2539ZM17.5215 13.349C17.369 13.4122 17.2305 13.505 17.1141 13.622L18.5323 15.0322C18.4623 15.1027 18.3789 15.1586 18.2871 15.1966L17.5215 13.349ZM17.1161 13.62L13.62 17.1161L15.0342 18.5303L18.5303 15.0342L17.1161 13.62ZM13.6202 17.1159C13.5041 17.232 13.412 17.3698 13.3491 17.5215L15.1968 18.2871C15.159 18.3781 15.1038 18.4608 15.0341 18.5305L13.6202 17.1159ZM13.3491 17.5215C13.2863 17.6732 13.2539 17.8358 13.2539 18H15.2539C15.2539 18.0985 15.2345 18.1961 15.1968 18.2871L13.3491 17.5215ZM13.2539 18C13.2539 18.1642 13.2863 18.3268 13.3491 18.4784L15.1968 17.7128C15.2345 17.8039 15.2539 17.9014 15.2539 18H13.2539ZM13.3491 18.4784C13.412 18.6301 13.5041 18.768 13.6202 18.884L15.0341 17.4694C15.1038 17.5391 15.159 17.6218 15.1968 17.7128L13.3491 18.4784ZM13.62 18.8838L17.1161 22.3799L18.5303 20.9657L15.0342 17.4696L13.62 18.8838ZM17.1159 22.3797C17.232 22.4959 17.3698 22.588 17.5215 22.6509L18.2871 20.8032C18.3782 20.8409 18.4609 20.8962 18.5305 20.9659L17.1159 22.3797ZM17.5215 22.6509C17.6732 22.7137 17.8358 22.7461 18 22.7461V20.7461C18.0985 20.7461 18.1961 20.7655 18.2871 20.8032L17.5215 22.6509ZM18 22.7461C18.1642 22.7461 18.3268 22.7137 18.4785 22.6509L17.7129 20.8032C17.8039 20.7655 17.9015 20.7461 18 20.7461V22.7461ZM18.4785 22.6509C18.6302 22.588 18.768 22.4959 18.884 22.3797L17.4695 20.9659C17.5391 20.8962 17.6218 20.8409 17.7129 20.8032L18.4785 22.6509ZM18.8839 22.3799L22.3799 18.8838L20.9657 17.4696L17.4696 20.9657L18.8839 22.3799ZM22.3798 18.884C22.4959 18.7679 22.588 18.6301 22.6509 18.4784L20.8032 17.7128C20.8409 17.6218 20.8962 17.5391 20.9659 17.4694L22.3798 18.884ZM22.6509 18.4784C22.7137 18.3267 22.7461 18.1642 22.7461 18H20.7461C20.7461 17.9014 20.7655 17.8039 20.8032 17.7128L22.6509 18.4784ZM22.7461 18C22.7461 17.8358 22.7137 17.6732 22.6509 17.5215L20.8032 18.2871C20.7655 18.1961 20.7461 18.0985 20.7461 18H22.7461ZM22.6509 17.5215C22.588 17.3698 22.4959 17.232 22.3798 17.1159L20.9659 18.5305C20.8962 18.4608 20.8409 18.3781 20.8032 18.2871L22.6509 17.5215ZM22.3799 17.1161L18.8839 13.62L17.4696 15.0342L20.9657 18.5303L22.3799 17.1161ZM18.8858 13.622C18.7695 13.505 18.631 13.4122 18.4785 13.349L17.7129 15.1966C17.6211 15.1586 17.5377 15.1027 17.4677 15.0322L18.8858 13.622ZM18.4785 13.349C18.326 13.2858 18.1625 13.2535 17.9974 13.2539L18.0026 15.2539C17.9032 15.2541 17.8047 15.2347 17.7129 15.1966L18.4785 13.349ZM8.99999 9.75003H2.99999V11.75H8.99999V9.75003ZM3.00121 9.75003C2.80205 9.74979 2.61111 9.67057 2.47028 9.52974L1.05607 10.944C1.57138 11.4593 2.27003 11.7491 2.99878 11.75L3.00121 9.75003ZM2.47028 9.52974C2.32946 9.38891 2.25023 9.19798 2.24999 8.99882L0.249993 9.00125C0.250879 9.73 0.540766 10.4286 1.05607 10.944L2.47028 9.52974ZM2.24999 9.00003V3.00003H0.249992V9.00003H2.24999ZM2.24999 3.00125C2.25023 2.80209 2.32946 2.61115 2.47028 2.47032L1.05607 1.05611C0.540766 1.57141 0.250879 2.27006 0.249993 2.99882L2.24999 3.00125ZM2.47028 2.47032C2.61111 2.3295 2.80205 2.25027 3.00121 2.25003L2.99878 0.250031C2.27003 0.250917 1.57138 0.540804 1.05607 1.05611L2.47028 2.47032ZM2.99999 2.25003H8.99999V0.250031H2.99999V2.25003ZM8.99878 2.25003C9.19794 2.25027 9.38887 2.3295 9.5297 2.47032L10.9439 1.05611C10.4286 0.540804 9.72996 0.250917 9.00121 0.250031L8.99878 2.25003ZM9.5297 2.47032C9.67053 2.61115 9.74975 2.80208 9.74999 3.00125L11.75 2.99882C11.7491 2.27006 11.4592 1.57141 10.9439 1.05611L9.5297 2.47032ZM9.74999 3.00003V9.00003H11.75V3.00003H9.74999ZM9.74999 8.99882C9.74975 9.19798 9.67053 9.38891 9.5297 9.52974L10.9439 10.944C11.4592 10.4286 11.7491 9.73 11.75 9.00125L9.74999 8.99882ZM9.5297 9.52974C9.38887 9.67057 9.19794 9.74979 8.99878 9.75003L9.00121 11.75C9.72996 11.7491 10.4286 11.4593 10.9439 10.944L9.5297 9.52974ZM2.99808 1.75003C2.66726 1.75067 2.35017 1.88236 2.11625 2.11629L3.53046 3.5305C3.39025 3.67071 3.2002 3.74965 3.00191 3.75003L2.99808 1.75003ZM2.11625 2.11629C1.88233 2.35021 1.75063 2.6673 1.74999 2.99812L3.74999 3.00195C3.74961 3.20023 3.67067 3.39029 3.53046 3.5305L2.11625 2.11629ZM1.74999 3.00003V9.00003H3.74999V3.00003H1.74999ZM1.74999 9.00195C1.75063 9.33276 1.88233 9.64985 2.11625 9.88377L3.53046 8.46956C3.67067 8.60977 3.74961 8.79983 3.74999 8.99812L1.74999 9.00195ZM2.11625 9.88377C2.35017 10.1177 2.66726 10.2494 2.99808 10.25L3.00191 8.25003C3.20019 8.25041 3.39025 8.32935 3.53046 8.46956L2.11625 9.88377ZM2.99999 10.25H8.99999V8.25003H2.99999V10.25ZM9.00191 10.25C9.33272 10.2494 9.64981 10.1177 9.88374 9.88377L8.46952 8.46956C8.60973 8.32935 8.79979 8.25041 8.99808 8.25003L9.00191 10.25ZM9.88374 9.88377C10.1177 9.64985 10.2494 9.33276 10.25 9.00195L8.24999 8.99812C8.25037 8.79983 8.32931 8.60977 8.46952 8.46956L9.88374 9.88377ZM10.25 9.00003V3.00003H8.24999V9.00003H10.25ZM10.25 2.99812C10.2494 2.6673 10.1177 2.35021 9.88374 2.11629L8.46952 3.5305C8.32931 3.39029 8.25037 3.20023 8.24999 3.00195L10.25 2.99812ZM9.88374 2.11629C9.64981 1.88236 9.33273 1.75067 9.00191 1.75003L8.99808 3.75003C8.79979 3.74965 8.60973 3.67071 8.46952 3.5305L9.88374 2.11629ZM8.99999 1.75003H2.99999V3.75003H8.99999V1.75003ZM8.99999 21.75H2.99999V23.75H8.99999V21.75ZM3.00121 21.75C2.80205 21.7498 2.61111 21.6705 2.47028 21.5297L1.05607 22.9439C1.57138 23.4592 2.27003 23.7491 2.99878 23.75L3.00121 21.75ZM2.47028 21.5297C2.32946 21.3889 2.25023 21.1979 2.24999 20.9988L0.249993 21.0012C0.250879 21.73 0.540766 22.4286 1.05607 22.9439L2.47028 21.5297ZM2.24999 21V15H0.249992V21H2.24999ZM2.24999 15.0012C2.25023 14.8021 2.32946 14.6111 2.47028 14.4703L1.05607 13.0561C0.540766 13.5714 0.250879 14.27 0.249993 14.9988L2.24999 15.0012ZM2.47028 14.4703C2.61111 14.3295 2.80205 14.2502 3.00121 14.25L2.99878 12.25C2.27003 12.2509 1.57138 12.5408 1.05607 13.0561L2.47028 14.4703ZM2.99999 14.25H8.99999V12.25H2.99999V14.25ZM8.99878 14.25C9.19794 14.2502 9.38887 14.3295 9.5297 14.4703L10.9439 13.0561C10.4286 12.5408 9.72996 12.2509 9.00121 12.25L8.99878 14.25ZM9.5297 14.4703C9.67053 14.6111 9.74975 14.8021 9.74999 15.0012L11.75 14.9988C11.7491 14.27 11.4592 13.5714 10.9439 13.0561L9.5297 14.4703ZM9.74999 15V21H11.75V15H9.74999ZM9.74999 20.9988C9.74975 21.1979 9.67053 21.3889 9.5297 21.5297L10.9439 22.9439C11.4592 22.4286 11.7491 21.73 11.75 21.0012L9.74999 20.9988ZM9.5297 21.5297C9.38887 21.6705 9.19794 21.7498 8.99878 21.75L9.00121 23.75C9.72996 23.7491 10.4286 23.4592 10.9439 22.9439L9.5297 21.5297ZM2.99808 13.75C2.66726 13.7506 2.35017 13.8823 2.11625 14.1163L3.53046 15.5305C3.39025 15.6707 3.20019 15.7496 3.00191 15.75L2.99808 13.75ZM2.11625 14.1163C1.88233 14.3502 1.75063 14.6673 1.74999 14.9981L3.74999 15.0019C3.74961 15.2002 3.67067 15.3903 3.53046 15.5305L2.11625 14.1163ZM1.74999 15V21H3.74999V15H1.74999ZM1.74999 21.0019C1.75063 21.3327 1.88233 21.6498 2.11625 21.8837L3.53046 20.4695C3.67067 20.6097 3.74961 20.7998 3.74999 20.9981L1.74999 21.0019ZM2.11625 21.8837C2.35017 22.1177 2.66725 22.2494 2.99808 22.25L3.00191 20.25C3.2002 20.2504 3.39026 20.3293 3.53046 20.4695L2.11625 21.8837ZM2.99999 22.25H8.99999V20.25H2.99999V22.25ZM9.00191 22.25C9.33273 22.2494 9.64982 22.1177 9.88374 21.8837L8.46952 20.4695C8.60973 20.3293 8.79978 20.2504 8.99808 20.25L9.00191 22.25ZM9.88374 21.8837C10.1177 21.6498 10.2494 21.3327 10.25 21.0019L8.24999 20.9981C8.25037 20.7998 8.32931 20.6097 8.46952 20.4695L9.88374 21.8837ZM10.25 21V15H8.24999V21H10.25ZM10.25 14.9981C10.2494 14.6673 10.1177 14.3502 9.88374 14.1163L8.46952 15.5305C8.32931 15.3903 8.25037 15.2002 8.24999 15.0019L10.25 14.9981ZM9.88374 14.1163C9.64981 13.8823 9.33272 13.7506 9.00191 13.75L8.99808 15.75C8.79979 15.7496 8.60973 15.6707 8.46952 15.5305L9.88374 14.1163ZM8.99999 13.75H2.99999V15.75H8.99999V13.75Z" fill="black" mask="url(#path-1-inside-1_59_1229)"/>
</svg>
